<svg xmlns="http://www.w3.org/2000/svg" width="50.194" height="47.241" viewBox="0 0 50.194 47.241">
  <g id="box" transform="translate(0 1.25)">
    <path id="Path_86645" data-name="Path 86645" d="M54.355,343.681l-4.794-2.314a1.054,1.054,0,0,0-.917,1.9l4.794,2.314a1.054,1.054,0,0,0,.917-1.9Z" transform="translate(-43.549 -311.742)" fill="#fff"/>
    <path id="Path_86646" data-name="Path 86646" d="M58.808,310.237l-9.2-4.441a1.054,1.054,0,0,0-.916,1.9l9.2,4.441a1.054,1.054,0,0,0,.916-1.9Z" transform="translate(-43.59 -279.785)" fill="#fff"/>
    <g id="Group_87423" data-name="Group 87423" transform="translate(0)">
      <path id="Path_86644" data-name="Path 86644" d="M55.5,10.147,36.211.066a.58.58,0,0,0-.541,0L16.384,10.147a.68.68,0,0,0-.352.607V35.236a.68.68,0,0,0,.352.607L35.67,45.923a.58.58,0,0,0,.541,0L55.5,35.842a.68.68,0,0,0,.352-.607V10.754A.681.681,0,0,0,55.5,10.147ZM35.94,1.421,53.8,10.754,48.62,13.459a.612.612,0,0,0-.105-.072L30.781,4.118Zm7.612,14.686ZM54.6,34.813l-18.042,9.43V21.257c7.817-4.13,7.947-4.533,7.8-4.868s-.521-.476-8.42,3.7l-1.725-.9a.6.6,0,0,0-.831.314.7.7,0,0,0,.29.9l1.644.859V44.243l-18.042-9.43V11.827l16.4,8.571c.087.046,1.905.859,2,.859a.62.62,0,0,0,.561-.381.7.7,0,0,0-.29-.9L18.085,10.754l6.181-3.231,18.691,9.77.009.012v8.084a.688.688,0,0,0,.291.571.581.581,0,0,0,.6.036l4.655-2.433a.68.68,0,0,0,.352-.607V14.827l5.738-3Z" transform="translate(-16.032 0.001)" fill="#0054a6"/>
      <path id="Path_86647" data-name="Path 86647" d="M-12372.63-6325.793h9.811" transform="translate(12411.764 6330.698)" fill="none" stroke="#ffc20e" stroke-linecap="round" stroke-width="2.5"/>
      <path id="Path_86648" data-name="Path 86648" d="M0,0H9.811" transform="translate(44.039) rotate(90)" fill="none" stroke="#ffc20e" stroke-linecap="round" stroke-width="2.5"/>
    </g>
  </g>
</svg>
