<svg id="calculator" xmlns="http://www.w3.org/2000/svg" xmlns:xlink="http://www.w3.org/1999/xlink" width="33" height="36" viewBox="0 0 33 36">
  <defs>
    <linearGradient id="linear-gradient" x1="0.5" x2="1.361" y2="1.746" gradientUnits="objectBoundingBox">
      <stop offset="0" stop-color="#0054a6"/>
      <stop offset="1" stop-color="#002a53"/>
    </linearGradient>
  </defs>
  <g id="Rectangle_2946" data-name="Rectangle 2946" transform="translate(6)" stroke="#0054a6" stroke-width="1.5" fill="url(#linear-gradient)">
    <rect width="27" height="36" rx="4" stroke="none"/>
    <rect x="0.75" y="0.75" width="25.5" height="34.5" rx="3.25" fill="none"/>
  </g>
  <rect id="Rectangle_2947" data-name="Rectangle 2947" width="18" height="6" rx="1" transform="translate(11 5)" fill="#fff" stroke="#ffc20e" stroke-linecap="round" stroke-width="1.5"/>
  <rect id="Rectangle_2949" data-name="Rectangle 2949" width="4" height="4" rx="1" transform="translate(25 14)" fill="#ffc20e"/>
  <rect id="Rectangle_2953" data-name="Rectangle 2953" width="4" height="11" rx="1" transform="translate(25 21)" fill="#ffc20e"/>
  <rect id="Rectangle_2950" data-name="Rectangle 2950" width="4" height="4" rx="1" transform="translate(18 14)" fill="#ffc20e"/>
  <rect id="Rectangle_2951" data-name="Rectangle 2951" width="4" height="4" rx="1" transform="translate(18 21)" fill="#ffc20e"/>
  <rect id="Rectangle_2954" data-name="Rectangle 2954" width="4" height="4" rx="1" transform="translate(18 28)" fill="#ffc20e"/>
  <g id="Ellipse_2499" data-name="Ellipse 2499" transform="translate(0 14)" fill="#ffc20e" stroke="#ffc20e" stroke-width="1.5">
    <circle cx="8" cy="8" r="8" stroke="none"/>
    <circle cx="8" cy="8" r="7.25" fill="none"/>
  </g>
  <path id="Path_86652" data-name="Path 86652" d="M501.728,6083.5l-3.505,5.675" transform="translate(-491.873 -6064.457)" fill="#ffc20e" stroke="#fff" stroke-linecap="round" stroke-width="1"/>
  <g id="Ellipse_2500" data-name="Ellipse 2500" transform="translate(9 22.5)" fill="#ffc20e" stroke="#fff" stroke-width="1">
    <circle cx="1.5" cy="1.5" r="1.5" stroke="none"/>
    <circle cx="1.5" cy="1.5" r="1" fill="none"/>
  </g>
  <g id="Ellipse_2501" data-name="Ellipse 2501" transform="translate(4 18.5)" fill="#ffc20e" stroke="#fff" stroke-width="1">
    <circle cx="1.5" cy="1.5" r="1.5" stroke="none"/>
    <circle cx="1.5" cy="1.5" r="1" fill="none"/>
  </g>
</svg>
