<svg xmlns="http://www.w3.org/2000/svg" xmlns:xlink="http://www.w3.org/1999/xlink" width="40.166" height="40.166" viewBox="0 0 40.166 40.166">
  <defs>
    <linearGradient id="linear-gradient" x1="0.5" x2="0.5" y2="0.656" gradientUnits="objectBoundingBox">
      <stop offset="0" stop-color="#ffe28b"/>
      <stop offset="1" stop-color="#ffc20e"/>
    </linearGradient>
  </defs>
  <g id="location" transform="translate(0.001 0.001)">
    <g id="Group_87424" data-name="Group 87424" transform="translate(-0.001 -0.001)">
      <path id="Path_86746" data-name="Path 86746" d="M720.334,4281.575l9.5-5.489-2.914-14.035-5.771,9.5-1.268,1.074v9.177Z" transform="translate(-699.917 -4242.335)" fill="#0054a6"/>
      <path id="Path_86745" data-name="Path 86745" d="M727.107,4263l2.246,1.16,4.594,2.521,5.483,14.893-9.785-5.357-2.538-11.781Z" transform="translate(-699.917 -4242.335)" fill="#014384"/>
      <path id="Path_86744" data-name="Path 86744" d="M719.96,4272.614l-.959-.947-5.771-8.993-2.947,13.838,9.677,5.369Z" transform="translate(-699.917 -4242.335)" fill="#014384"/>
      <path id="Path_86651" data-name="Path 86651" d="M219.667,95.58c0-3.077-3.112-10.428-10.586-10.633S198.416,91.918,198.416,95s7.588,18.862,10.665,18.862S219.667,98.657,219.667,95.58Zm-14.572,0a3.986,3.986,0,1,1,3.986,3.986A3.99,3.99,0,0,1,205.1,95.58Z" transform="translate(-188.998 -84.368)" fill="url(#linear-gradient)"/>
      <path id="Path_86649" data-name="Path 86649" d="M40.128,39.369l-5.884-15.5a.588.588,0,0,0-.261-.3l-6.267-3.531,1.83-2.9a11.179,11.179,0,1,0-18.924,0l1.829,2.9-6.267,3.53a.588.588,0,0,0-.261.3L.039,39.369a.588.588,0,0,0,.839.721l9.458-5.329,9.458,5.329a.589.589,0,0,0,.578,0l9.458-5.329,9.458,5.329a.588.588,0,0,0,.839-.721ZM20.672,30.495a1.76,1.76,0,0,0,.9-.723l5.039-7.989,2.551,12-8.494,4.785ZM11.617,16.507a10,10,0,1,1,16.933,0c-.079.124-7.831,12.418-7.966,12.631l0,.005a.588.588,0,0,1-1,0c-.079-.125-7.847-12.443-7.965-12.632l0,0Zm-4.67,7.98,5.485-3.09-2.6,12.3a.588.588,0,1,0,1.151.245l2.566-12.159,5.038,7.99a1.767,1.767,0,0,0,.9.721v8.077L11,33.786l1.136-5.347a.588.588,0,0,0-1.151-.245L9.816,33.7l-8.1,4.564Zm23.4,9.217L27.735,21.4l5.485,3.09,5.232,13.781Z" transform="translate(0 -0.001)" fill="#0054a6"/>
      <path id="Path_86743" data-name="Path 86743" d="M706.38,4266.56l6.766-3.8-3.14,14.13-9.492,4.861Z" transform="translate(-699.917 -4242.335)" fill="#0054a6"/>
    </g>
  </g>
</svg>
